<svg width="28" height="28" viewBox="0 0 28 28" fill="none" xmlns="http://www.w3.org/2000/svg">
<path d="M14 28C21.732 28 28 21.732 28 14C28 6.26801 21.732 0 14 0C6.26801 0 0 6.26801 0 14C0 21.732 6.26801 28 14 28Z" fill="#009771"/>
<path fill-rule="evenodd" clip-rule="evenodd" d="M12.37 5.77228C11.1493 6.03895 10.0676 7.26451 9.44196 9.08975L9.22673 9.71769L8.26397 10.0132C7.73441 10.1757 7.25008 10.3585 7.18774 10.4195C7.09132 10.5137 6.54395 14.1859 5.732 20.1856C5.68853 20.5066 5.6992 20.5359 5.87388 20.5738C6.21656 20.6483 15.7741 22.3027 15.7839 22.2893C15.8233 22.2351 16.4628 7.74457 16.4272 7.71149C16.402 7.68821 16.2743 7.70375 16.1432 7.74612C15.9072 7.82246 15.9033 7.81929 15.6748 7.36631C15.31 6.64302 14.7412 6.20871 14.1589 6.20871C14.0253 6.20871 13.8666 6.14289 13.7781 6.05077C13.467 5.72684 13.0002 5.6345 12.37 5.77228ZM13.1886 6.35151C13.1886 6.38941 13.121 6.44024 13.0386 6.46454C12.7748 6.54225 12.077 7.29754 11.8407 7.76108C11.7149 8.00792 11.5504 8.42077 11.4753 8.67859L11.3384 9.1473L10.7308 9.31368C10.3967 9.40519 10.0778 9.49575 10.0222 9.51498C9.88739 9.56163 10.2509 8.61972 10.6249 7.95369C11.1825 6.9603 12.0833 6.28259 12.8459 6.28259C13.0344 6.28259 13.1886 6.31362 13.1886 6.35151ZM14.7608 7.03979C14.8983 7.17188 15.0833 7.4295 15.172 7.61231L15.3333 7.94477L15.1081 8.03312C14.9841 8.08168 14.7934 8.14225 14.6842 8.16767C14.4911 8.21262 14.4841 8.20038 14.4318 7.7263C14.4022 7.45809 14.3566 7.13989 14.3306 7.01918C14.2664 6.72125 14.4377 6.72945 14.7608 7.03979ZM13.7364 7.20179C13.7855 7.38227 13.8255 7.72873 13.8255 7.97167V8.41348L13.0368 8.64079C12.0859 8.9149 12.0475 8.91741 12.116 8.70195C12.2248 8.35998 12.5491 7.75327 12.7608 7.49574C12.9603 7.25299 13.4695 6.87358 13.5957 6.87358C13.6241 6.87358 13.6874 7.02125 13.7364 7.20179ZM16.6918 7.86453C16.6918 7.98088 16.547 11.1548 16.3702 14.9176C16.1933 18.6804 16.059 21.8772 16.0716 22.0216L16.0946 22.2842L18.7173 21.7576C20.1598 21.4681 21.3526 21.1961 21.368 21.1532C21.3942 21.0805 19.5085 9.07502 19.4431 8.89803C19.426 8.85153 19.079 8.79538 18.6296 8.76628L17.8462 8.71551L17.269 8.18425C16.714 7.67339 16.6918 7.66109 16.6918 7.86453ZM13.4832 11.4561C13.6933 11.498 13.9067 11.5563 13.9573 11.5854C14.0894 11.6616 13.4036 13.4946 13.2559 13.4606C13.1969 13.447 12.935 13.3851 12.6737 13.3228C12.1089 13.1886 11.4893 13.2359 11.1993 13.4355C11.0891 13.5112 10.9665 13.6924 10.9266 13.8382C10.8327 14.1818 10.9662 14.3748 11.617 14.8363C12.4803 15.4484 12.7842 15.7454 13.0392 16.2258C13.2543 16.6315 13.2873 16.7715 13.2847 17.269C13.2793 18.2874 12.8135 19.1073 11.9995 19.5317C11.6319 19.7233 11.4629 19.7618 10.877 19.7878C9.87906 19.8321 9.06544 19.5872 8.3468 19.0261L8.10902 18.8404L8.3398 18.1269C8.46683 17.7345 8.57072 17.4006 8.57072 17.385C8.57072 17.3693 8.73754 17.4629 8.94143 17.5931C9.38154 17.874 9.99607 18.1023 10.3125 18.1023C10.8053 18.1023 11.1809 17.5373 10.9579 17.1313C10.9053 17.0356 10.5125 16.6415 10.0849 16.2555C9.14295 15.405 9.00089 15.1138 9.07015 14.1756C9.16911 12.8362 10.1165 11.8234 11.5781 11.4947C12.1326 11.3701 12.9671 11.3531 13.4832 11.4561Z" fill="white"/>
</svg>
