<svg width="48" height="48" viewBox="0 0 48 48" fill="none" xmlns="http://www.w3.org/2000/svg">
<rect x="1" y="1" width="46" height="46" rx="23" stroke="white" stroke-width="2"/>
<path d="M14 23.9443V24.0557C14 24.6767 14.1422 25.2902 14.4707 25.8171C14.9491 26.5845 15.7922 27.7922 17 29C18.5067 30.5068 20.0135 31.4459 20.6651 31.8175C20.8833 31.942 21.1308 32 21.382 32C22.5848 32 23.4087 30.7132 23.0246 29.5734C22.7842 28.86 22.5419 28.0291 22.3534 27.1363C22.2275 26.5404 22.6961 26 23.3051 26H33C33.5523 26 34 25.5523 34 25V23C34 22.4477 33.5523 22 33 22H23.3051C22.6961 22 22.2275 21.4596 22.3534 20.8637C22.5419 19.9709 22.7842 19.14 23.0246 18.4266C23.4087 17.2868 22.5848 16 21.382 16C21.1308 16 20.8833 16.058 20.6651 16.1825C20.0135 16.5541 18.5067 17.4933 17 19C15.7922 20.2078 14.9491 21.4155 14.4707 22.1829C14.1422 22.7098 14 23.3233 14 23.9443Z" fill="white"/>
</svg>
