<svg width="48" height="48" viewBox="0 0 48 48" fill="none" xmlns="http://www.w3.org/2000/svg">
<rect x="1" y="1" width="46" height="46" rx="23" stroke="white" stroke-width="2"/>
<path d="M34 24.0557L34 23.9443C34 23.3233 33.8578 22.7098 33.5293 22.1829C33.0509 21.4155 32.2078 20.2078 31 19C29.4933 17.4932 27.9865 16.5541 27.3349 16.1825C27.1167 16.058 26.8692 16 26.618 16C25.4152 16 24.5913 17.2868 24.9754 18.4266C25.2158 19.14 25.4581 19.9709 25.6466 20.8637C25.7725 21.4596 25.3039 22 24.6949 22L15 22C14.4477 22 14 22.4477 14 23L14 25C14 25.5523 14.4477 26 15 26L24.6949 26C25.3039 26 25.7725 26.5404 25.6466 27.1363C25.4581 28.0291 25.2158 28.86 24.9754 29.5734C24.5913 30.7132 25.4152 32 26.618 32C26.8692 32 27.1167 31.942 27.3349 31.8175C27.9865 31.4459 29.4933 30.5067 31 29C32.2078 27.7922 33.0509 26.5845 33.5293 25.8171C33.8578 25.2902 34 24.6767 34 24.0557Z" fill="white"/>
</svg>
