<svg width="28" height="28" viewBox="0 0 28 28" fill="none" xmlns="http://www.w3.org/2000/svg">
<path d="M14 28C21.732 28 28 21.732 28 14C28 6.26801 21.732 0 14 0C6.26801 0 0 6.26801 0 14C0 21.732 6.26801 28 14 28Z" fill="#1DA1F2"/>
<path d="M10.6055 21.308C17.511 21.308 21.287 15.6853 21.287 10.8096C21.287 10.65 21.2837 10.491 21.2764 10.3327C22.0095 9.81188 22.6466 9.16191 23.1491 8.42205C22.4764 8.7159 21.7525 8.91375 20.9931 9.0029C21.7683 8.54614 22.3634 7.82351 22.644 6.96202C21.9187 7.38465 21.1154 7.69184 20.2601 7.85763C19.575 7.14043 18.5997 6.69189 17.5197 6.69189C15.4466 6.69189 13.7653 8.34431 13.7653 10.3812C13.7653 10.6708 13.7983 10.9524 13.8627 11.2226C10.7423 11.0683 7.97565 9.60004 6.12423 7.3674C5.80181 7.91267 5.61589 8.54614 5.61589 9.22197C5.61589 10.5022 6.27866 11.6323 7.28654 12.2934C6.67062 12.2747 6.09202 12.1085 5.58625 11.8319C5.5857 11.8474 5.5857 11.8625 5.5857 11.879C5.5857 13.666 6.87976 15.158 8.59762 15.4961C8.28218 15.5806 7.95023 15.6259 7.60767 15.6259C7.36614 15.6259 7.13082 15.6026 6.90209 15.5594C7.38006 17.0255 8.76599 18.0924 10.4091 18.1222C9.12424 19.1121 7.50555 19.7016 5.74636 19.7016C5.4437 19.7016 5.1447 19.6848 4.85083 19.6506C6.51233 20.6973 8.48525 21.308 10.6057 21.308" fill="white"/>
</svg>
