<svg width="28" height="28" viewBox="0 0 28 28" fill="none" xmlns="http://www.w3.org/2000/svg">
<path d="M14 28C21.732 28 28 21.732 28 14C28 6.26801 21.732 0 14 0C6.26801 0 0 6.26801 0 14C0 21.732 6.26801 28 14 28Z" fill="#282828"/>
<path d="M22.85 9.46992C22.6482 8.72033 22.0571 8.12931 21.3076 7.92749C19.9381 7.55273 14.4604 7.55273 14.4604 7.55273C14.4604 7.55273 8.98269 7.55273 7.61327 7.91312C6.87807 8.11495 6.27264 8.72033 6.07082 9.46992C5.71045 10.8393 5.71045 13.6791 5.71045 13.6791C5.71045 13.6791 5.71045 16.5334 6.07082 17.8883C6.27264 18.6379 6.86366 19.229 7.61327 19.4308C8.99706 19.8055 14.4604 19.8055 14.4604 19.8055C14.4604 19.8055 19.9381 19.8055 21.3076 19.4452C22.0571 19.2434 22.6482 18.6524 22.85 17.9028C23.2104 16.5334 23.2104 13.6936 23.2104 13.6936C23.2104 13.6936 23.2248 10.8393 22.85 9.46992Z" fill="white"/>
<path d="M17.2717 13.6783L12.7166 11.0547V16.3018L17.2717 13.6783Z" fill="#191919"/>
</svg>
